<mxfile host="app.diagrams.net" modified="2023-11-17T15:34:51.257Z" agent="Mozilla/5.0 (Windows NT 10.0; Win64; x64) AppleWebKit/537.36 (KHTML, like Gecko) Chrome/116.0.0.0 Safari/537.36 OPR/102.0.0.0" etag="HQhfmZP2kOV0AzIY11aU" version="22.1.3" type="github">
  <diagram name="Página-1" id="whJht1XOHp7WVKLZD-nA">
    <mxGraphModel dx="1393" dy="789" grid="1" gridSize="10" guides="1" tooltips="1" connect="1" arrows="1" fold="1" page="1" pageScale="1" pageWidth="827" pageHeight="1169" math="0" shadow="0">
      <root>
        <mxCell id="0" />
        <mxCell id="1" parent="0" />
        <mxCell id="2" value="SistemaDeComércioEletrônico" style="swimlane;fontStyle=1;align=center;verticalAlign=top;childLayout=stackLayout;horizontal=1;startSize=26;horizontalStack=0;resizeParent=1;resizeParentMax=0;resizeLast=0;collapsible=0;marginBottom=0;" parent="1" vertex="1">
          <mxGeometry x="8" y="8" width="505" height="242" as="geometry" />
        </mxCell>
        <mxCell id="3" value="- produtos: Produto[]" style="text;strokeColor=none;fillColor=none;align=left;verticalAlign=top;spacingLeft=4;spacingRight=4;overflow=hidden;rotatable=0;points=[[0,0.5],[1,0.5]];portConstraint=eastwest;" parent="2" vertex="1">
          <mxGeometry y="26" width="505" height="26" as="geometry" />
        </mxCell>
        <mxCell id="4" value="- usuários: Usuário[]" style="text;strokeColor=none;fillColor=none;align=left;verticalAlign=top;spacingLeft=4;spacingRight=4;overflow=hidden;rotatable=0;points=[[0,0.5],[1,0.5]];portConstraint=eastwest;" parent="2" vertex="1">
          <mxGeometry y="52" width="505" height="26" as="geometry" />
        </mxCell>
        <mxCell id="5" value="- carrinho: CarrinhoDeCompras" style="text;strokeColor=none;fillColor=none;align=left;verticalAlign=top;spacingLeft=4;spacingRight=4;overflow=hidden;rotatable=0;points=[[0,0.5],[1,0.5]];portConstraint=eastwest;" parent="2" vertex="1">
          <mxGeometry y="78" width="505" height="26" as="geometry" />
        </mxCell>
        <mxCell id="6" style="line;strokeWidth=1;fillColor=none;align=left;verticalAlign=middle;spacingTop=-1;spacingLeft=3;spacingRight=3;rotatable=0;labelPosition=right;points=[];portConstraint=eastwest;strokeColor=inherit;" parent="2" vertex="1">
          <mxGeometry y="104" width="505" height="8" as="geometry" />
        </mxCell>
        <mxCell id="7" value="+ adicionarProduto(produto: Produto): void" style="text;strokeColor=none;fillColor=none;align=left;verticalAlign=top;spacingLeft=4;spacingRight=4;overflow=hidden;rotatable=0;points=[[0,0.5],[1,0.5]];portConstraint=eastwest;" parent="2" vertex="1">
          <mxGeometry y="112" width="505" height="26" as="geometry" />
        </mxCell>
        <mxCell id="8" value="+ removerProduto(produto: Produto): void" style="text;strokeColor=none;fillColor=none;align=left;verticalAlign=top;spacingLeft=4;spacingRight=4;overflow=hidden;rotatable=0;points=[[0,0.5],[1,0.5]];portConstraint=eastwest;" parent="2" vertex="1">
          <mxGeometry y="138" width="505" height="26" as="geometry" />
        </mxCell>
        <mxCell id="9" value="+ adicionarAoCarrinho(produto: Produto, quantidade: number): void" style="text;strokeColor=none;fillColor=none;align=left;verticalAlign=top;spacingLeft=4;spacingRight=4;overflow=hidden;rotatable=0;points=[[0,0.5],[1,0.5]];portConstraint=eastwest;" parent="2" vertex="1">
          <mxGeometry y="164" width="505" height="26" as="geometry" />
        </mxCell>
        <mxCell id="10" value="+ removerDoCarrinho(produto: Produto, quantidade: number): void" style="text;strokeColor=none;fillColor=none;align=left;verticalAlign=top;spacingLeft=4;spacingRight=4;overflow=hidden;rotatable=0;points=[[0,0.5],[1,0.5]];portConstraint=eastwest;" parent="2" vertex="1">
          <mxGeometry y="190" width="505" height="26" as="geometry" />
        </mxCell>
        <mxCell id="11" value="+ finalizarCompra(): void" style="text;strokeColor=none;fillColor=none;align=left;verticalAlign=top;spacingLeft=4;spacingRight=4;overflow=hidden;rotatable=0;points=[[0,0.5],[1,0.5]];portConstraint=eastwest;" parent="2" vertex="1">
          <mxGeometry y="216" width="505" height="26" as="geometry" />
        </mxCell>
        <mxCell id="12" value="Produto" style="swimlane;fontStyle=1;align=center;verticalAlign=top;childLayout=stackLayout;horizontal=1;startSize=26.857142857142858;horizontalStack=0;resizeParent=1;resizeParentMax=0;resizeLast=0;collapsible=0;marginBottom=0;" parent="1" vertex="1">
          <mxGeometry x="220" y="350" width="248" height="196.85714285714286" as="geometry" />
        </mxCell>
        <mxCell id="13" value="- nome: string" style="text;strokeColor=none;fillColor=none;align=left;verticalAlign=top;spacingLeft=4;spacingRight=4;overflow=hidden;rotatable=0;points=[[0,0.5],[1,0.5]];portConstraint=eastwest;" parent="12" vertex="1">
          <mxGeometry y="26.857142857142858" width="248" height="27" as="geometry" />
        </mxCell>
        <mxCell id="14" value="- preço: number" style="text;strokeColor=none;fillColor=none;align=left;verticalAlign=top;spacingLeft=4;spacingRight=4;overflow=hidden;rotatable=0;points=[[0,0.5],[1,0.5]];portConstraint=eastwest;" parent="12" vertex="1">
          <mxGeometry y="53.85714285714286" width="248" height="27" as="geometry" />
        </mxCell>
        <mxCell id="15" style="line;strokeWidth=1;fillColor=none;align=left;verticalAlign=middle;spacingTop=-1;spacingLeft=3;spacingRight=3;rotatable=0;labelPosition=right;points=[];portConstraint=eastwest;strokeColor=inherit;" parent="12" vertex="1">
          <mxGeometry y="80.85714285714286" width="248" height="8" as="geometry" />
        </mxCell>
        <mxCell id="16" value="+ getNome(): string" style="text;strokeColor=none;fillColor=none;align=left;verticalAlign=top;spacingLeft=4;spacingRight=4;overflow=hidden;rotatable=0;points=[[0,0.5],[1,0.5]];portConstraint=eastwest;" parent="12" vertex="1">
          <mxGeometry y="88.85714285714286" width="248" height="27" as="geometry" />
        </mxCell>
        <mxCell id="17" value="+ setNome(nome: string): void" style="text;strokeColor=none;fillColor=none;align=left;verticalAlign=top;spacingLeft=4;spacingRight=4;overflow=hidden;rotatable=0;points=[[0,0.5],[1,0.5]];portConstraint=eastwest;" parent="12" vertex="1">
          <mxGeometry y="115.85714285714286" width="248" height="27" as="geometry" />
        </mxCell>
        <mxCell id="18" value="+ getPreço(): number" style="text;strokeColor=none;fillColor=none;align=left;verticalAlign=top;spacingLeft=4;spacingRight=4;overflow=hidden;rotatable=0;points=[[0,0.5],[1,0.5]];portConstraint=eastwest;" parent="12" vertex="1">
          <mxGeometry y="142.85714285714286" width="248" height="27" as="geometry" />
        </mxCell>
        <mxCell id="19" value="+ setPreço(preço: number): void" style="text;strokeColor=none;fillColor=none;align=left;verticalAlign=top;spacingLeft=4;spacingRight=4;overflow=hidden;rotatable=0;points=[[0,0.5],[1,0.5]];portConstraint=eastwest;" parent="12" vertex="1">
          <mxGeometry y="169.85714285714286" width="248" height="27" as="geometry" />
        </mxCell>
        <mxCell id="20" value="Usuário" style="swimlane;fontStyle=1;align=center;verticalAlign=top;childLayout=stackLayout;horizontal=1;startSize=25.25;horizontalStack=0;resizeParent=1;resizeParentMax=0;resizeLast=0;collapsible=0;marginBottom=0;" parent="1" vertex="1">
          <mxGeometry x="650" y="280" width="376" height="308.25" as="geometry" />
        </mxCell>
        <mxCell id="21" value="- nome: string" style="text;strokeColor=none;fillColor=none;align=left;verticalAlign=top;spacingLeft=4;spacingRight=4;overflow=hidden;rotatable=0;points=[[0,0.5],[1,0.5]];portConstraint=eastwest;" parent="20" vertex="1">
          <mxGeometry y="25.25" width="376" height="25" as="geometry" />
        </mxCell>
        <mxCell id="22" value="- email: string" style="text;strokeColor=none;fillColor=none;align=left;verticalAlign=top;spacingLeft=4;spacingRight=4;overflow=hidden;rotatable=0;points=[[0,0.5],[1,0.5]];portConstraint=eastwest;" parent="20" vertex="1">
          <mxGeometry y="50.25" width="376" height="25" as="geometry" />
        </mxCell>
        <mxCell id="23" value="- senha: string" style="text;strokeColor=none;fillColor=none;align=left;verticalAlign=top;spacingLeft=4;spacingRight=4;overflow=hidden;rotatable=0;points=[[0,0.5],[1,0.5]];portConstraint=eastwest;" parent="20" vertex="1">
          <mxGeometry y="75.25" width="376" height="25" as="geometry" />
        </mxCell>
        <mxCell id="24" style="line;strokeWidth=1;fillColor=none;align=left;verticalAlign=middle;spacingTop=-1;spacingLeft=3;spacingRight=3;rotatable=0;labelPosition=right;points=[];portConstraint=eastwest;strokeColor=inherit;" parent="20" vertex="1">
          <mxGeometry y="100.25" width="376" height="8" as="geometry" />
        </mxCell>
        <mxCell id="25" value="+ getNome(): string" style="text;strokeColor=none;fillColor=none;align=left;verticalAlign=top;spacingLeft=4;spacingRight=4;overflow=hidden;rotatable=0;points=[[0,0.5],[1,0.5]];portConstraint=eastwest;" parent="20" vertex="1">
          <mxGeometry y="108.25" width="376" height="25" as="geometry" />
        </mxCell>
        <mxCell id="26" value="+ setNome(nome: string): void" style="text;strokeColor=none;fillColor=none;align=left;verticalAlign=top;spacingLeft=4;spacingRight=4;overflow=hidden;rotatable=0;points=[[0,0.5],[1,0.5]];portConstraint=eastwest;" parent="20" vertex="1">
          <mxGeometry y="133.25" width="376" height="25" as="geometry" />
        </mxCell>
        <mxCell id="27" value="+ getEmail(): string" style="text;strokeColor=none;fillColor=none;align=left;verticalAlign=top;spacingLeft=4;spacingRight=4;overflow=hidden;rotatable=0;points=[[0,0.5],[1,0.5]];portConstraint=eastwest;" parent="20" vertex="1">
          <mxGeometry y="158.25" width="376" height="25" as="geometry" />
        </mxCell>
        <mxCell id="28" value="+ setEmail(email: string): void" style="text;strokeColor=none;fillColor=none;align=left;verticalAlign=top;spacingLeft=4;spacingRight=4;overflow=hidden;rotatable=0;points=[[0,0.5],[1,0.5]];portConstraint=eastwest;" parent="20" vertex="1">
          <mxGeometry y="183.25" width="376" height="25" as="geometry" />
        </mxCell>
        <mxCell id="29" value="+ getSenha(): string" style="text;strokeColor=none;fillColor=none;align=left;verticalAlign=top;spacingLeft=4;spacingRight=4;overflow=hidden;rotatable=0;points=[[0,0.5],[1,0.5]];portConstraint=eastwest;" parent="20" vertex="1">
          <mxGeometry y="208.25" width="376" height="25" as="geometry" />
        </mxCell>
        <mxCell id="30" value="+ setSenha(senha: string): void" style="text;strokeColor=none;fillColor=none;align=left;verticalAlign=top;spacingLeft=4;spacingRight=4;overflow=hidden;rotatable=0;points=[[0,0.5],[1,0.5]];portConstraint=eastwest;" parent="20" vertex="1">
          <mxGeometry y="233.25" width="376" height="25" as="geometry" />
        </mxCell>
        <mxCell id="31" value="+ fazerLogin(email: string, senha: string): boolean" style="text;strokeColor=none;fillColor=none;align=left;verticalAlign=top;spacingLeft=4;spacingRight=4;overflow=hidden;rotatable=0;points=[[0,0.5],[1,0.5]];portConstraint=eastwest;" parent="20" vertex="1">
          <mxGeometry y="258.25" width="376" height="25" as="geometry" />
        </mxCell>
        <mxCell id="32" value="+ fazerLogout(): void" style="text;strokeColor=none;fillColor=none;align=left;verticalAlign=top;spacingLeft=4;spacingRight=4;overflow=hidden;rotatable=0;points=[[0,0.5],[1,0.5]];portConstraint=eastwest;" parent="20" vertex="1">
          <mxGeometry y="283.25" width="376" height="25" as="geometry" />
        </mxCell>
        <mxCell id="33" value="CarrinhoDeCompras" style="swimlane;fontStyle=1;align=center;verticalAlign=top;childLayout=stackLayout;horizontal=1;startSize=27.5;horizontalStack=0;resizeParent=1;resizeParentMax=0;resizeLast=0;collapsible=0;marginBottom=0;" parent="1" vertex="1">
          <mxGeometry x="31" y="661" width="459" height="173" as="geometry" />
        </mxCell>
        <mxCell id="34" value="- itens: ItemCarrinho[]" style="text;strokeColor=none;fillColor=none;align=left;verticalAlign=top;spacingLeft=4;spacingRight=4;overflow=hidden;rotatable=0;points=[[0,0.5],[1,0.5]];portConstraint=eastwest;" parent="33" vertex="1">
          <mxGeometry y="28" width="459" height="28" as="geometry" />
        </mxCell>
        <mxCell id="35" style="line;strokeWidth=1;fillColor=none;align=left;verticalAlign=middle;spacingTop=-1;spacingLeft=3;spacingRight=3;rotatable=0;labelPosition=right;points=[];portConstraint=eastwest;strokeColor=inherit;" parent="33" vertex="1">
          <mxGeometry y="55" width="459" height="8" as="geometry" />
        </mxCell>
        <mxCell id="36" value="+ adicionarItem(produto: Produto, quantidade: number): void" style="text;strokeColor=none;fillColor=none;align=left;verticalAlign=top;spacingLeft=4;spacingRight=4;overflow=hidden;rotatable=0;points=[[0,0.5],[1,0.5]];portConstraint=eastwest;" parent="33" vertex="1">
          <mxGeometry y="63" width="459" height="28" as="geometry" />
        </mxCell>
        <mxCell id="37" value="+ removerItem(produto: Produto, quantidade: number): void" style="text;strokeColor=none;fillColor=none;align=left;verticalAlign=top;spacingLeft=4;spacingRight=4;overflow=hidden;rotatable=0;points=[[0,0.5],[1,0.5]];portConstraint=eastwest;" parent="33" vertex="1">
          <mxGeometry y="91" width="459" height="28" as="geometry" />
        </mxCell>
        <mxCell id="38" value="+ esvaziarCarrinho(): void" style="text;strokeColor=none;fillColor=none;align=left;verticalAlign=top;spacingLeft=4;spacingRight=4;overflow=hidden;rotatable=0;points=[[0,0.5],[1,0.5]];portConstraint=eastwest;" parent="33" vertex="1">
          <mxGeometry y="118" width="459" height="28" as="geometry" />
        </mxCell>
        <mxCell id="39" value="+ calcularTotal(): number" style="text;strokeColor=none;fillColor=none;align=left;verticalAlign=top;spacingLeft=4;spacingRight=4;overflow=hidden;rotatable=0;points=[[0,0.5],[1,0.5]];portConstraint=eastwest;" parent="33" vertex="1">
          <mxGeometry y="146" width="459" height="28" as="geometry" />
        </mxCell>
        <mxCell id="40" value="ItemCarrinho" style="swimlane;fontStyle=1;align=center;verticalAlign=top;childLayout=stackLayout;horizontal=1;startSize=26.857142857142858;horizontalStack=0;resizeParent=1;resizeParentMax=0;resizeLast=0;collapsible=0;marginBottom=0;" parent="1" vertex="1">
          <mxGeometry x="185" y="884" width="331" height="196" as="geometry" />
        </mxCell>
        <mxCell id="41" value="- produto: Produto" style="text;strokeColor=none;fillColor=none;align=left;verticalAlign=top;spacingLeft=4;spacingRight=4;overflow=hidden;rotatable=0;points=[[0,0.5],[1,0.5]];portConstraint=eastwest;" parent="40" vertex="1">
          <mxGeometry y="27" width="331" height="27" as="geometry" />
        </mxCell>
        <mxCell id="42" value="- quantidade: number" style="text;strokeColor=none;fillColor=none;align=left;verticalAlign=top;spacingLeft=4;spacingRight=4;overflow=hidden;rotatable=0;points=[[0,0.5],[1,0.5]];portConstraint=eastwest;" parent="40" vertex="1">
          <mxGeometry y="54" width="331" height="27" as="geometry" />
        </mxCell>
        <mxCell id="43" style="line;strokeWidth=1;fillColor=none;align=left;verticalAlign=middle;spacingTop=-1;spacingLeft=3;spacingRight=3;rotatable=0;labelPosition=right;points=[];portConstraint=eastwest;strokeColor=inherit;" parent="40" vertex="1">
          <mxGeometry y="81" width="331" height="8" as="geometry" />
        </mxCell>
        <mxCell id="44" value="+ getProduto(): Produto" style="text;strokeColor=none;fillColor=none;align=left;verticalAlign=top;spacingLeft=4;spacingRight=4;overflow=hidden;rotatable=0;points=[[0,0.5],[1,0.5]];portConstraint=eastwest;" parent="40" vertex="1">
          <mxGeometry y="89" width="331" height="27" as="geometry" />
        </mxCell>
        <mxCell id="45" value="+ setProduto(produto: Produto): void" style="text;strokeColor=none;fillColor=none;align=left;verticalAlign=top;spacingLeft=4;spacingRight=4;overflow=hidden;rotatable=0;points=[[0,0.5],[1,0.5]];portConstraint=eastwest;" parent="40" vertex="1">
          <mxGeometry y="115" width="331" height="27" as="geometry" />
        </mxCell>
        <mxCell id="46" value="+ getQuantidade(): number" style="text;strokeColor=none;fillColor=none;align=left;verticalAlign=top;spacingLeft=4;spacingRight=4;overflow=hidden;rotatable=0;points=[[0,0.5],[1,0.5]];portConstraint=eastwest;" parent="40" vertex="1">
          <mxGeometry y="142" width="331" height="27" as="geometry" />
        </mxCell>
        <mxCell id="47" value="+ setQuantidade(quantidade: number): void" style="text;strokeColor=none;fillColor=none;align=left;verticalAlign=top;spacingLeft=4;spacingRight=4;overflow=hidden;rotatable=0;points=[[0,0.5],[1,0.5]];portConstraint=eastwest;" parent="40" vertex="1">
          <mxGeometry y="169" width="331" height="27" as="geometry" />
        </mxCell>
        <mxCell id="48" value="" style="curved=1;startArrow=none;endArrow=open;endSize=12;exitX=0.630542604774176;exitY=1;entryX=0.5000630040322581;entryY=-0.002551020408163265;" parent="1" source="2" target="12" edge="1">
          <mxGeometry relative="1" as="geometry">
            <Array as="points">
              <mxPoint x="340" y="275" />
            </Array>
          </mxGeometry>
        </mxCell>
        <mxCell id="49" value="1" style="edgeLabel;resizable=0;align=left;verticalAlign=top;" parent="48" vertex="1">
          <mxGeometry x="-1" relative="1" as="geometry" />
        </mxCell>
        <mxCell id="50" value="*" style="edgeLabel;resizable=0;align=right;verticalAlign=top;" parent="48" vertex="1">
          <mxGeometry x="1" relative="1" as="geometry" />
        </mxCell>
        <mxCell id="51" value="" style="curved=1;startArrow=none;endArrow=open;endSize=12;exitX=1.0005569306930693;exitY=0.8454848545583772;entryX=0.49951171875;entryY=0;" parent="1" source="2" target="20" edge="1">
          <mxGeometry relative="1" as="geometry">
            <Array as="points">
              <mxPoint x="702" y="275" />
            </Array>
          </mxGeometry>
        </mxCell>
        <mxCell id="52" value="1" style="edgeLabel;resizable=0;align=left;verticalAlign=top;" parent="51" vertex="1">
          <mxGeometry x="-1" relative="1" as="geometry" />
        </mxCell>
        <mxCell id="53" value="*" style="edgeLabel;resizable=0;align=right;verticalAlign=top;" parent="51" vertex="1">
          <mxGeometry x="1" relative="1" as="geometry" />
        </mxCell>
        <mxCell id="54" value="" style="curved=1;startArrow=none;endArrow=open;endSize=12;exitX=0.2832335357893666;exitY=1;entryX=0.27677573193577387;entryY=0;" parent="1" source="2" target="33" edge="1">
          <mxGeometry relative="1" as="geometry">
            <Array as="points">
              <mxPoint x="128" y="275" />
              <mxPoint x="128" y="636" />
            </Array>
          </mxGeometry>
        </mxCell>
        <mxCell id="55" value="1" style="edgeLabel;resizable=0;align=left;verticalAlign=top;" parent="54" vertex="1">
          <mxGeometry x="-1" relative="1" as="geometry" />
        </mxCell>
        <mxCell id="56" value="1" style="edgeLabel;resizable=0;align=right;verticalAlign=top;" parent="54" vertex="1">
          <mxGeometry x="1" relative="1" as="geometry" />
        </mxCell>
        <mxCell id="57" value="" style="curved=1;startArrow=none;endArrow=open;endSize=12;exitX=0.5003063725490197;exitY=1;entryX=0.28340264473264076;entryY=0;" parent="1" source="33" target="40" edge="1">
          <mxGeometry relative="1" as="geometry">
            <Array as="points">
              <mxPoint x="261" y="859" />
            </Array>
          </mxGeometry>
        </mxCell>
        <mxCell id="58" value="1" style="edgeLabel;resizable=0;align=left;verticalAlign=top;" parent="57" vertex="1">
          <mxGeometry x="-1" relative="1" as="geometry" />
        </mxCell>
        <mxCell id="59" value="*" style="edgeLabel;resizable=0;align=right;verticalAlign=top;" parent="57" vertex="1">
          <mxGeometry x="1" relative="1" as="geometry" />
        </mxCell>
        <mxCell id="60" value="" style="curved=1;startArrow=none;endArrow=none;exitX=0.2324175118398713;exitY=0.9974489795918368;entryX=0.42783403766962685;entryY=0;" parent="1" source="12" target="33" edge="1">
          <mxGeometry relative="1" as="geometry">
            <Array as="points">
              <mxPoint x="218" y="636" />
            </Array>
          </mxGeometry>
        </mxCell>
        <mxCell id="61" value="1" style="edgeLabel;resizable=0;align=left;verticalAlign=top;" parent="60" vertex="1">
          <mxGeometry x="-1" relative="1" as="geometry" />
        </mxCell>
        <mxCell id="62" value="1" style="edgeLabel;resizable=0;align=right;verticalAlign=top;" parent="60" vertex="1">
          <mxGeometry x="1" relative="1" as="geometry" />
        </mxCell>
        <mxCell id="63" value="" style="curved=1;startArrow=none;endArrow=none;exitX=0.999054939516129;exitY=0.7959388034891881;entryX=0.9981589879154078;entryY=0.2208686607621267;" parent="1" source="12" target="40" edge="1">
          <mxGeometry relative="1" as="geometry">
            <Array as="points">
              <mxPoint x="722" y="636" />
              <mxPoint x="722" y="859" />
            </Array>
          </mxGeometry>
        </mxCell>
        <mxCell id="64" value="1" style="edgeLabel;resizable=0;align=left;verticalAlign=top;" parent="63" vertex="1">
          <mxGeometry x="-1" relative="1" as="geometry" />
        </mxCell>
        <mxCell id="65" value="*" style="edgeLabel;resizable=0;align=right;verticalAlign=top;" parent="63" vertex="1">
          <mxGeometry x="1" relative="1" as="geometry" />
        </mxCell>
        <mxCell id="66" value="" style="curved=1;startArrow=none;endArrow=none;exitX=0.21940205849958744;exitY=1;entryX=1.0003233932461875;entryY=0.03618805512045362;" parent="1" source="20" target="33" edge="1">
          <mxGeometry relative="1" as="geometry">
            <Array as="points">
              <mxPoint x="580" y="636" />
            </Array>
          </mxGeometry>
        </mxCell>
        <mxCell id="67" value="1" style="edgeLabel;resizable=0;align=left;verticalAlign=top;" parent="66" vertex="1">
          <mxGeometry x="-1" relative="1" as="geometry" />
        </mxCell>
        <mxCell id="68" value="*" style="edgeLabel;resizable=0;align=right;verticalAlign=top;" parent="66" vertex="1">
          <mxGeometry x="1" relative="1" as="geometry" />
        </mxCell>
      </root>
    </mxGraphModel>
  </diagram>
</mxfile>
